<svg xmlns="http://www.w3.org/2000/svg" width="287.34" height="47.215" viewBox="0 0 287.34 47.215"><g transform="translate(-280.66 -88.785)"><path d="M402.777,135.792V123.125l-3.616,12.667h-3.745l-3.564-12.927v12.927h-3.485V118.444h5.306l3.693,12.9,3.668-12.9h5.28v17.348Z" fill="#58595b"/><path d="M412.942,130.616c.052,1.795.39,2.549,2.549,2.549.833,0,2.315-.156,2.315-1.4h3.329c0,3.641-3.459,4.239-5.748,4.239-5.254,0-6.086-2.809-6.086-6.4,0-3.667.754-6.814,6.008-6.814,5.722,0,5.982,3.407,5.982,7.829Zm2.367-4.994c-2.029,0-2.315.962-2.315,2.315H417.7C417.7,126.48,417.494,125.622,415.309,125.622Z" fill="#58595b"/><path d="M432.655,135.792v-1.041A5.62,5.62,0,0,1,428.884,136c-5.124,0-5.359-3.615-5.359-6.607,0-3.771.781-6.606,5.177-6.606a5.606,5.606,0,0,1,3.407.832v-5.956h3.667v18.129Zm-3.225-9.754c-1.795,0-2.237.781-2.237,3.355s.442,3.356,2.237,3.356c2.133,0,2.731-.65,2.731-3.356S431.563,126.038,429.43,126.038Z" fill="#58595b"/><path d="M440.455,121.877a1.952,1.952,0,1,1,2-1.951A1.8,1.8,0,0,1,440.455,121.877Zm-1.821,13.915V123H442.3v12.8Z" fill="#58595b"/><path d="M450.884,136c-5.436,0-6.008-3.147-6.008-6.633s.572-6.58,6.008-6.58c2.237,0,5.592.65,5.592,4.214v.26h-3.407c0-.7-.182-1.327-2.107-1.327-2.211,0-2.5.937-2.5,3.459s.286,3.46,2.5,3.46c1.925,0,2.107-.624,2.107-1.327h3.407v.261C456.476,135.35,453.121,136,450.884,136Z" fill="#58595b"/><path d="M466.976,135.792v-1.041a5.493,5.493,0,0,1-3.8,1.249c-2.965,0-4.968-.962-4.968-4.135,0-3.8,2.861-4.188,5.566-4.188h2.887v-.234c0-1.067-.078-1.9-2.263-1.9-1.04,0-2.289.13-2.289,1.093h-3.537c0-3.174,3.1-3.85,5.852-3.85a7.377,7.377,0,0,1,3.876.78c1.743,1.145,1.821,2.835,1.821,4.734v7.491Zm-3.147-5.436c-1.561,0-2.055.468-2.055,1.431,0,.806.416,1.4,2.081,1.4,2.731,0,2.809-1.482,2.809-2.835Z" fill="#58595b"/><path d="M472.8,135.792V117.663h3.667v18.129Z" fill="#58595b"/><path d="M498.209,134.283c-1.145,1.145-3.043,1.717-5.723,1.717-7.282,0-7.36-4.031-7.36-8.895s.052-8.844,7.334-8.844c2.394,0,4.474.391,5.8,1.717a5.067,5.067,0,0,1,1.249,3.615h-3.824c-.026-1.326-.6-1.924-3.174-1.924-3.042,0-3.589,1.092-3.589,5.462s.547,5.462,3.589,5.462c2.576,0,3.148-.6,3.174-1.925h3.824A4.8,4.8,0,0,1,498.209,134.283Z" fill="#58595b"/><path d="M505.512,130.616c.052,1.795.39,2.549,2.548,2.549.833,0,2.315-.156,2.315-1.4h3.33c0,3.641-3.46,4.239-5.749,4.239-5.254,0-6.086-2.809-6.086-6.4,0-3.667.754-6.814,6.008-6.814,5.723,0,5.983,3.407,5.983,7.829Zm2.366-4.994c-2.028,0-2.314.962-2.314,2.315h4.707C510.271,126.48,510.063,125.622,507.878,125.622Z" fill="#58595b"/><path d="M524.445,135.792v-6.243c0-2.262.1-3.511-1.9-3.511-2.653,0-2.419,2.081-2.419,4.292v5.462H516.46V123h3.069v1.041a5.275,5.275,0,0,1,3.667-1.249c4.942,0,4.916,3.277,4.916,5.982v7.023Z" fill="#58595b"/><path d="M536.536,136c-3.1,0-4.916-1.327-4.916-4.291v-5.671h-2.029V123h2.029v-4.551h3.668V123H540.1v3.043h-4.811v5.228c0,.937.182,1.639,1.4,1.639.962,0,1.378-.286,1.378-1.092h3.46C541.53,135.09,539.059,136,536.536,136Z" fill="#58595b"/><path d="M546.467,130.616c.052,1.795.39,2.549,2.548,2.549.833,0,2.316-.156,2.316-1.4h3.329c0,3.641-3.459,4.239-5.749,4.239-5.254,0-6.086-2.809-6.086-6.4,0-3.667.754-6.814,6.008-6.814,5.723,0,5.983,3.407,5.983,7.829Zm2.366-4.994c-2.028,0-2.314.962-2.314,2.315h4.708C551.227,126.48,551.019,125.622,548.833,125.622Z" fill="#58595b"/><path d="M564.593,127.261c0-.781-.286-1.223-1.353-1.223-2.211,0-2.159,2-2.159,3.693v6.061h-3.667V123h3.069v1.041a4.866,4.866,0,0,1,3.3-1.249c3.225,0,4.213,1.665,4.213,4.474Z" fill="#58595b"/><path d="M292.53,110.162V105.1c0-1.472-.031-1.809-.491-2.27s-1.656-.46-3.895-.46h-3.006v7.79H280.66V89.706h7.791c4.631,0,8.434.184,8.434,5.888,0,2.454-.43,3.895-1.994,4.54,2.239.643,1.994,3.342,1.994,5.029v5Zm-4.969-16.5h-2.423v4.784h2.638c3.435,0,4.754.185,4.754-2.392C292.53,93.386,290.873,93.662,287.561,93.662Z" fill="#58595b"/><path d="M302.68,93.754a2.3,2.3,0,1,1,2.362-2.3A2.117,2.117,0,0,1,302.68,93.754Zm-2.147,16.408V95.073h4.325v15.089Z" fill="#58595b"/><path d="M314.978,110.408c-6.41,0-7.085-3.711-7.085-7.821s.675-7.76,7.085-7.76c2.638,0,6.594.767,6.594,4.969v.306h-4.018c0-.827-.214-1.564-2.484-1.564-2.607,0-2.944,1.1-2.944,4.08s.337,4.079,2.944,4.079c2.27,0,2.484-.736,2.484-1.564h4.018v.306C321.572,109.641,317.616,110.408,314.978,110.408Z" fill="#58595b"/><path d="M333.962,110.162V102.8c0-2.667.122-4.14-2.239-4.14-3.129,0-2.852,2.454-2.852,5.06v6.441h-4.325V88.785h4.325V95.9a6.788,6.788,0,0,1,3.68-1.074c5.827,0,5.735,3.865,5.735,7.054v8.281Z" fill="#58595b"/><path d="M358.527,110.162v-8.741c0-1.5.123-2.576-1.84-2.576-2.638,0-2.331,2.454-2.331,4.478v6.839h-4.324v-8.741c0-1.5.122-2.576-1.84-2.576-2.638,0-2.331,2.454-2.331,4.478v6.839h-4.417V95.073h3.8V96.3a5.594,5.594,0,0,1,3.8-1.472,4.741,4.741,0,0,1,3.773,1.565,5.638,5.638,0,0,1,4.355-1.565c3.22,0,5.428,1.411,5.643,4.54.031.582.031,1.195.031,1.778v9.017Z" fill="#58595b"/><path d="M378.676,108.69c-1.38,1.289-3.282,1.718-5.7,1.718-2.453,0-4.324-.429-5.7-1.718-1.411-1.318-1.687-3.373-1.687-6.134s.276-4.784,1.687-6.1c1.38-1.288,3.251-1.626,5.7-1.626,2.423,0,4.325.368,5.7,1.656,1.411,1.319,1.687,3.313,1.687,6.073S380.087,107.372,378.676,108.69Zm-5.7-10.09c-2.637,0-3.067,1.042-3.067,4.018s.43,4.018,3.067,4.018,3.067-1.043,3.067-4.018S375.609,98.6,372.971,98.6Z" fill="#58595b"/><path d="M392.722,110.162V102.8c0-2.667.122-4.14-2.239-4.14-3.129,0-2.853,2.454-2.853,5.06v6.441h-4.324V95.073h3.619V96.3a6.228,6.228,0,0,1,4.324-1.472c5.827,0,5.8,3.865,5.8,7.054v8.281Z" fill="#58595b"/><path d="M410.54,110.162v-1.226a6.639,6.639,0,0,1-4.448,1.472c-6.042,0-6.318-4.264-6.318-7.79,0-4.447.92-7.791,6.1-7.791a6.6,6.6,0,0,1,4.017.982V88.785h4.325v21.377Zm-3.8-11.5c-2.116,0-2.637.92-2.637,3.957s.521,3.956,2.637,3.956c2.515,0,3.221-.767,3.221-3.956S409.251,98.661,406.736,98.661Z" fill="#58595b"/><path d="M440.128,104.028c-.276,4.539-3.281,6.38-8,6.38s-7.73-1.841-8.005-6.38c-.062-.92-.062-2.147-.062-4.14V89.706h4.478v9.476c0,5.306-.368,7.208,3.589,7.208,3.925,0,3.587-1.84,3.587-7.208V89.706h4.479V99.888C440.19,101.881,440.19,103.108,440.128,104.028Z" fill="#58595b"/><path d="M453.285,110.162V102.8c0-2.667.122-4.14-2.239-4.14-3.129,0-2.853,2.454-2.853,5.06v6.441h-4.324V95.073h3.619V96.3a6.228,6.228,0,0,1,4.324-1.472c5.827,0,5.8,3.865,5.8,7.054v8.281Z" fill="#58595b"/><path d="M462.913,93.754a2.3,2.3,0,1,1,2.362-2.3A2.117,2.117,0,0,1,462.913,93.754Zm-2.146,16.408V95.073h4.324v15.089Z" fill="#58595b"/><path d="M477.082,110.162h-4.477l-5.766-15.089H471.5l3.375,9.446,3.4-9.446h4.6Z" fill="#58595b"/><path d="M488.27,104.059c.061,2.117.46,3.005,3.005,3.005.982,0,2.73-.183,2.73-1.655h3.926c0,4.293-4.079,5-6.778,5-6.2,0-7.177-3.312-7.177-7.545,0-4.325.889-8.036,7.084-8.036,6.748,0,7.055,4.018,7.055,9.232Zm2.79-5.888c-2.392,0-2.729,1.134-2.729,2.729h5.551C493.882,99.182,493.637,98.171,491.06,98.171Z" fill="#58595b"/><path d="M509.645,100.1c0-.92-.337-1.441-1.594-1.441-2.608,0-2.546,2.361-2.546,4.355v7.146H501.18V95.073H504.8V96.3a5.748,5.748,0,0,1,3.9-1.472c3.8,0,4.968,1.963,4.968,5.275Z" fill="#58595b"/><path d="M521.851,110.408c-3.374,0-6.87-.89-6.87-4.969h3.987c0,1.38,1.135,1.657,2.638,1.687,1.472.031,2.76-.276,2.76-1.564,0-1.165-.92-1.2-2.239-1.288-3.834-.276-6.839-.368-6.839-4.938,0-3.68,3.036-4.509,6.716-4.509,3.466,0,6.717.767,6.717,4.969h-3.956c0-1.411-1.5-1.656-2.515-1.687s-2.607.123-2.607,1.411c0,1.165.828,1.165,2.024,1.257,3.926.338,7.054.307,7.054,5.03C528.721,109.61,525.163,110.408,521.851,110.408Z" fill="#58595b"/><path d="M533.719,93.754a2.3,2.3,0,1,1,2.361-2.3A2.117,2.117,0,0,1,533.719,93.754Zm-2.147,16.408V95.073H535.9v15.089Z" fill="#58595b"/><path d="M546.017,110.408c-3.65,0-5.8-1.565-5.8-5.061V98.661h-2.393V95.073h2.393V89.706h4.324v5.367h5.674v3.588h-5.674v6.165c0,1.1.215,1.932,1.656,1.932,1.135,0,1.626-.337,1.626-1.288h4.079C551.906,109.335,548.992,110.408,546.017,110.408Z" fill="#58595b"/><path d="M559.964,116.021h-4.692l2.392-6.042-5.7-14.906h4.661l3.374,9.477,3.435-9.477H568Z" fill="#58595b"/><path d="M319.709,117.825q-.62.9-1.238,1.808L312.2,128.8l-4.925,7.2h24.87q-6.219-9.087-12.434-18.174Z" fill="#006fba"/><path d="M293.1,117.825q-.619.9-1.238,1.808-3.135,4.584-6.273,9.166L280.66,136h24.87L293.1,117.825Z" fill="#cce2f1"/><path d="M352.974,126.912h0" fill="#89d4ee"/><path d="M318.837,117.825H293.963Q300.18,126.914,306.4,136l4.925-7.2,6.274-9.167,1.238-1.809Z" fill="#66a9d6"/><path d="M345.449,117.825H320.578Q326.8,126.912,333.012,136l1.3-1.9,11.135-16.275h0Z" fill="#cce2f1"/><path d="M372.062,117.825H347.191q6.217,9.087,12.434,18.175l1.3-1.9,11.135-16.275h0Z" fill="#006fba"/><path d="M372.934,117.825q-.619.9-1.238,1.808-3.135,4.584-6.273,9.166-2.461,3.6-4.925,7.2h24.87l-12.434-18.174Z" fill="#cce2f1"/><path d="M358.756,136h0Zm-12.437-18.174h0Q340.1,126.913,333.886,136h24.867l-12.434-18.173h0Z" fill="#66a9d6"/></g></svg>